<?xml version="1.0" encoding="utf-8"?>
<!-- Generator: Adobe Illustrator 23.0.0, SVG Export Plug-In . SVG Version: 6.00 Build 0)  -->
<svg version="1.1" id="Layer_1" xmlns="http://www.w3.org/2000/svg" xmlns:xlink="http://www.w3.org/1999/xlink" x="0px" y="0px"
	 viewBox="0 0 1296 1296" style="enable-background:new 0 0 1296 1296;" xml:space="preserve">
<style type="text/css">
	.st0{fill:#6D6E71;}
	.st1{fill:none;stroke:#6D6E71;stroke-width:18;stroke-miterlimit:10;}
</style>
<path d="M439.77,127.56"/>
<path d="M427.81,136.55"/>
<g>
	<path class="st0" d="M381.18,975.05c52.98,32.79,130.41,60.11,211.92,60.11c120.91,0,191.55-64.21,191.55-157.1
		c0-86.07-48.9-135.24-172.53-183.06c-149.43-53.28-241.81-131.15-241.81-260.93c0-143.44,118.19-250,296.15-250
		c93.74,0,161.66,21.86,202.41,45.08l-32.6,96.99c-29.89-16.39-91.02-43.71-173.89-43.71c-124.98,0-172.53,75.14-172.53,137.98
		c0,86.07,55.7,128.42,182.04,177.6c154.87,60.11,233.66,135.25,233.66,270.49c0,142.08-104.6,265.03-320.6,265.03
		c-88.3,0-184.75-25.96-233.66-58.74L381.18,975.05z"/>
	<path class="st0" d="M654.6,591.78c63.54,0,128.28-14.66,170.25-37.31l21.58,91.94c-38.36,21.32-115.1,42.64-213.41,42.64"/>
</g>
<circle class="st1" cx="638.96" cy="648" r="614.3"/>
</svg>
