<svg xmlns="http://www.w3.org/2000/svg" viewBox="0 0 80 80" width="160" height="160"><path fill="#b0c1d4" d="M32.5 55.5H47.5V68.5H32.5z"/><path fill="#66798f" d="M47,56v12H33V56H47 M48,55H32v14h16V55L48,55z"/><path fill="#d9f2ff" d="M2.5 7.5H77.5V60.5H2.5z"/><path fill="#66798f" d="M77,8v52H3V8H77 M78,7H2v54h76V7L78,7z"/><path fill="#66798f" d="M2 51H78V61H2zM62 73H18v0c0-3.314 2.686-6 6-6h32C59.314 67 62 69.686 62 73L62 73z"/><path fill="#ffeea3" d="M68 55H74V57H68z"/><path fill="#ffc49c" d="M12.503,44.5c-0.577,0-1.156-0.25-1.55-0.671c-0.315-0.336-0.476-0.738-0.45-1.13l0.001-25.365 c-0.033-0.587,0.215-0.974,0.428-1.2c0.38-0.402,0.953-0.633,1.571-0.633H27.5c1.103,0,2,0.822,2,1.833v25.333 c0,1.011-0.897,1.833-2,1.833H12.503z"/><path fill="#a16a4a" d="M27.5,16c0.827,0,1.5,0.598,1.5,1.333v25.333C29,43.402,28.327,44,27.5,44H12.503 c-0.441,0-0.884-0.192-1.185-0.513c-0.22-0.235-0.332-0.503-0.316-0.757l0.002-0.032v-0.032V17.333v-0.029l-0.002-0.029 c-0.018-0.305,0.081-0.574,0.294-0.799C11.577,16.178,12.029,16,12.503,16H27.5 M27.5,15H12.503c-1.38,0-2.578,0.972-2.5,2.333 v25.333C9.926,43.882,11.123,45,12.503,45H27.5c1.38,0,2.5-1.045,2.5-2.333V17.333C30,16.045,28.881,15,27.5,15L27.5,15z"/><g><path fill="#f2faff" d="M10.5 19.5H29.5V40.5H10.5z"/><path fill="#a16a4a" d="M29,20v20H11V20H29 M30,19H10v22h20V19L30,19z"/></g><g><path fill="#ffc49c" d="M40.5,44.5c-0.55,0-1.092-0.241-1.488-0.661c-0.354-0.375-0.541-0.853-0.513-1.31L38.5,17.5 c-0.036-0.678,0.244-1.118,0.485-1.372c0.378-0.399,0.931-0.628,1.515-0.628h27c1.103,0,2,0.897,2,2v25c0,1.103-0.897,2-2,2H40.5z"/><path fill="#a16a4a" d="M67.5,16c0.827,0,1.5,0.673,1.5,1.5v25c0,0.827-0.673,1.5-1.5,1.5h-27 c-0.413,0-0.822-0.183-1.124-0.503c-0.259-0.275-0.397-0.617-0.378-0.937L39,42.53V42.5v-25v-0.027l-0.001-0.027 c-0.025-0.474,0.176-0.792,0.349-0.975C39.632,16.172,40.052,16,40.5,16H67.5 M67.5,15h-27c-1.381,0-2.578,1.041-2.5,2.5v25 c-0.078,1.303,1.119,2.5,2.5,2.5h27c1.381,0,2.5-1.119,2.5-2.5v-25C70,16.119,68.881,15,67.5,15L67.5,15z"/></g><g><path fill="#f2faff" d="M38.5 19.5H69.5V40.5H38.5z"/><path fill="#a16a4a" d="M69,20v20H39V20H69 M70,19H38v22h32V19L70,19z"/></g></svg>